# xmcd
#
# Track frame offsets:
#	150
#	43268
#	65885
#	99148
#	120813
#	156603
#
# Disc length: 2403 seconds
#
# Revision: 0
# Processed by: cddbd v1.5.2PL0 Copyright (c) Steve Scherf et al.
# Submitted via: audiograbber 1.83.01
#
DISCID=4c096106
DTITLE=pink floyd - a journey into blues
DYEAR=1991
DGENRE=Blues
TTITLE0=warm up blues
TTITLE1=respect
TTITLE2=born under a bad sign
TTITLE3=living in the city
TTITLE4=heard it through the grapevine
TTITLE5=kansas city
EXTD=
EXTT0=
EXTT1=
EXTT2=
EXTT3=
EXTT4=
EXTT5=
PLAYORDER=
